<?xml version="1.0" encoding="utf-8"?>
<!-- Generator: Adobe Illustrator 16.0.0, SVG Export Plug-In . SVG Version: 6.00 Build 0) -->
<svg version="1.2" baseProfile="tiny" id="Layer_1" xmlns="http://www.w3.org/2000/svg" xmlns:xlink="http://www.w3.org/1999/xlink"
	 x="0px" y="0px" width="300px" height="80px" viewBox="0 0 300 80" xml:space="preserve">
<g id="Icon">
	<g>
		<g>
			<g>
				<g>
					<path fill="#FFFFFF" d="M65.548,50.651c-1.045-0.974-2.676-0.927-3.658,0.11c-0.143,0.15-0.261,0.317-0.356,0.491l-9.897-3.816
						l-4.972-16.468l-16.801-3.943l-5.954-16.16l0,0c0.538-0.246,1.037-0.594,1.465-1.053c1.757-1.869,1.663-4.806-0.206-6.556
						c-1.869-1.75-4.806-1.663-6.556,0.206c-1.758,1.869-1.663,4.806,0.206,6.556c0.911,0.855,2.075,1.274,3.23,1.259l2.597,17.332
						L12.832,41.189l4.973,16.469L10.663,67.69c-2.232-1.449-5.257-1.141-7.142,0.862c-2.122,2.257-2.011,5.804,0.253,7.926
						c2.256,2.122,5.804,2.012,7.926-0.253c1.86-1.979,2.003-4.957,0.483-7.087l0,0l9.612-7.695l16.801,3.942l11.861-12.628
						l10.752-0.056c0.04,0.633,0.309,1.251,0.807,1.726c1.045,0.982,2.676,0.927,3.658-0.118
						C66.641,53.264,66.593,51.633,65.548,50.651z M27.361,27.999l4.362,14.434l-2.019,2.146l0.847,2.803L20.251,58.292
						L27.361,27.999z M20.979,58.949L31.233,48.03l2.866,0.673l2.019-2.153l14.592,3.381L20.979,58.949z M36.324,45.64l-0.847-2.812
						l-2.858-0.673l-4.355-14.434l22.668,21.291L36.324,45.64z"/>
				</g>
			</g>
		</g>
	</g>
</g>
<g id="Logo">
</g>
<g>
	<path fill="#FFFFFF" d="M85.148,43.825h7.355V53.86c-1.203,0.392-2.358,0.67-3.466,0.834s-2.304,0.246-3.589,0.246
		c-3.026,0-5.359-0.896-7-2.687s-2.461-4.318-2.461-7.581c0-3.218,0.925-5.735,2.775-7.554c1.85-1.818,4.397-2.728,7.643-2.728
		c2.087,0,4.065,0.401,5.934,1.203l-1.148,2.721c-1.623-0.747-3.245-1.121-4.867-1.121c-2.133,0-3.819,0.67-5.059,2.01
		c-1.24,1.34-1.859,3.172-1.859,5.496c0,2.442,0.558,4.3,1.675,5.571c1.116,1.271,2.723,1.907,4.819,1.907
		c1.057,0,2.188-0.132,3.391-0.396v-5.154h-4.143V43.825z"/>
	<path fill="#FFFFFF" d="M95.902,54.667V34.679h3.268v17.186h8.463v2.803H95.902z"/>
	<path fill="#FFFFFF" d="M127.424,44.646c0,3.254-0.813,5.783-2.439,7.588s-3.932,2.707-6.912,2.707
		c-3.017,0-5.334-0.896-6.952-2.687c-1.618-1.791-2.427-4.336-2.427-7.636s0.813-5.833,2.44-7.602
		c1.627-1.768,3.949-2.652,6.966-2.652c2.971,0,5.268,0.898,6.89,2.693C126.613,38.854,127.424,41.383,127.424,44.646z
		 M112.167,44.646c0,2.461,0.497,4.327,1.49,5.599c0.993,1.271,2.465,1.907,4.416,1.907c1.941,0,3.407-0.629,4.396-1.887
		c0.988-1.258,1.482-3.131,1.482-5.619c0-2.452-0.489-4.311-1.469-5.578c-0.98-1.267-2.441-1.9-4.382-1.9
		c-1.96,0-3.438,0.634-4.437,1.9C112.666,40.334,112.167,42.193,112.167,44.646z"/>
	<path fill="#FFFFFF" d="M130.317,34.679h5.934c2.753,0,4.742,0.401,5.968,1.203c1.226,0.802,1.839,2.069,1.839,3.801
		c0,1.167-0.301,2.138-0.902,2.912s-1.468,1.263-2.598,1.463v0.137c1.403,0.265,2.436,0.786,3.097,1.565s0.991,1.834,0.991,3.165
		c0,1.796-0.627,3.201-1.88,4.218s-2.996,1.524-5.229,1.524h-7.219V34.679z M133.585,42.937h3.145c1.367,0,2.365-0.216,2.994-0.649
		c0.629-0.433,0.943-1.169,0.943-2.208c0-0.938-0.34-1.618-1.019-2.037c-0.679-0.419-1.757-0.629-3.233-0.629h-2.83V42.937z
		 M133.585,45.589v6.33h3.473c1.367,0,2.399-0.262,3.097-0.786s1.046-1.352,1.046-2.481c0-1.039-0.355-1.81-1.066-2.311
		s-1.791-0.752-3.24-0.752H133.585z"/>
	<path fill="#FFFFFF" d="M158.708,54.667h-11.307V34.679h11.307v2.762h-8.039v5.441h7.533v2.734h-7.533v6.275h8.039V54.667z"/>
	<path fill="#FFFFFF" d="M170.77,46.683v7.984h-3.268V34.679h5.646c2.579,0,4.489,0.483,5.729,1.449
		c1.239,0.966,1.859,2.425,1.859,4.375c0,2.488-1.294,4.261-3.883,5.318l5.646,8.846h-3.719l-4.785-7.984H170.77z M170.77,43.976
		h2.27c1.522,0,2.625-0.282,3.309-0.848s1.025-1.403,1.025-2.516c0-1.13-0.369-1.941-1.107-2.434s-1.851-0.738-3.336-0.738h-2.16
		V43.976z"/>
	<path fill="#FFFFFF" d="M195.305,54.667h-11.307V34.679h11.307v2.762h-8.039v5.441h7.533v2.734h-7.533v6.275h8.039V54.667z"/>
	<path fill="#FFFFFF" d="M198.226,54.667V34.679h3.268v17.186h8.463v2.803H198.226z"/>
	<path fill="#FFFFFF" d="M224.401,54.667l-1.996-5.551h-7.643l-1.955,5.551h-3.445l7.479-20.07h3.555l7.479,20.07H224.401z
		 M221.544,46.3l-1.873-5.441c-0.137-0.364-0.326-0.938-0.567-1.723c-0.241-0.784-0.408-1.358-0.499-1.723
		c-0.246,1.121-0.606,2.347-1.08,3.678L215.72,46.3H221.544z"/>
	<path fill="#FFFFFF" d="M234.76,43.798l4.73-9.119h3.555l-6.658,12.236v7.752h-3.281v-7.643l-6.631-12.346h3.555L234.76,43.798z"/>
	<path fill="#FFFFFF" d="M250.156,54.667V34.679h3.268v19.988H250.156z"/>
	<path fill="#FFFFFF" d="M273.954,54.667h-4.006l-9.83-15.928h-0.109l0.068,0.889c0.128,1.695,0.191,3.245,0.191,4.648v10.391
		h-2.967V34.679h3.965l9.803,15.846h0.082c-0.019-0.21-0.055-0.973-0.109-2.29s-0.082-2.345-0.082-3.083V34.679h2.994V54.667z"/>
	<path fill="#FFFFFF" d="M286.335,37.194c-1.878,0-3.354,0.666-4.43,1.996c-1.075,1.331-1.613,3.167-1.613,5.51
		c0,2.452,0.518,4.307,1.552,5.564s2.531,1.887,4.491,1.887c0.848,0,1.668-0.084,2.461-0.253s1.618-0.385,2.475-0.649v2.803
		c-1.567,0.593-3.345,0.889-5.332,0.889c-2.926,0-5.173-0.887-6.74-2.659s-2.352-4.309-2.352-7.608c0-2.078,0.381-3.896,1.142-5.455
		s1.861-2.752,3.302-3.582c1.44-0.829,3.131-1.244,5.072-1.244c2.042,0,3.929,0.429,5.66,1.285l-1.176,2.721
		c-0.675-0.319-1.388-0.599-2.14-0.841C287.955,37.315,287.164,37.194,286.335,37.194z"/>
	<path fill="#FFFFFF" d="M293.357,52.958c0-0.665,0.173-1.176,0.52-1.531s0.848-0.533,1.504-0.533c0.665,0,1.171,0.185,1.518,0.554
		s0.52,0.873,0.52,1.511c0,0.647-0.176,1.16-0.526,1.538s-0.854,0.567-1.511,0.567s-1.157-0.187-1.504-0.561
		S293.357,53.614,293.357,52.958z"/>
</g>
</svg>
